<svg xmlns="http://www.w3.org/2000/svg" data-name="Layer 1" width="128" height="128" style=""><rect id="backgroundrect" width="100%" height="100%" x="0" y="0" fill="none" stroke="none"/><title>LOCAL SEO</title><g class="currentLayer" style=""><title>Layer 1</title><path d="M64,20.4A31.163,31.163,0,0,0,32.873,51.524c0,21.089,28.956,54.252,30.188,55.653a1.25,1.25,0,1,0,1.877-1.65c-.3-.337-29.565-33.855-29.565-54a28.627,28.627,0,0,1,57.254,0c0,15.452-17.729,39.344-25.352,48.9a1.25,1.25,0,1,0,1.955,1.559c9.671-12.124,25.9-34.8,25.9-50.458A31.163,31.163,0,0,0,64,20.4Z" id="svg_1" class="" fill-opacity="1" fill="#05a7ff"/><path d="M55.507,41.74 c0.132,-0.11500000000000002 0.267,-0.22700000000000004 0.4,-0.3360000000000001 a1.251,1.251 0 0 0 -1.562,-1.953 q-0.24700000000000003,0.2 -0.48600000000000004,0.405 a1.25,1.25 0 1 0 1.6440000000000001,1.8840000000000001 z" id="svg_2" class="" stroke-opacity="1" stroke="#05a7ff"/><path d="M52.266,43.418a1.247,1.247,0,0,0-1.7.468,15.431,15.431,0,1,0,8.109-6.874,1.25,1.25,0,0,0,.861,2.348,12.953,12.953,0,1,1-6.8,5.763A1.249,1.249,0,0,0,52.266,43.418Z" id="svg_3" class="" fill-opacity="1" fill="#05a7ff"/></g></svg>