<svg height="512pt" viewBox="-109 0 512 512" width="512pt" xmlns="http://www.w3.org/2000/svg"><path d="m146.878906 0c-80.988281 0-146.878906 65.890625-146.878906 146.878906 0 43.433594 22.578125 76.433594 48.722656 114.644532 37.035156 54.125 83.125 121.488281 83.125 250.476562h30.058594c0-129.707031 46.144531-196.902344 83.21875-250.898438 26.09375-38.003906 48.632812-70.828124 48.632812-114.222656 0-80.988281-65.890624-146.878906-146.878906-146.878906zm0 0" fill="#1b5c91"/><path d="m146.878906 0v512h15.027344c0-129.707031 46.144531-196.902344 83.21875-250.898438 26.09375-38.003906 48.632812-70.828124 48.632812-114.222656 0-80.988281-65.890624-146.878906-146.878906-146.878906zm0 0" fill="#0e2e4b"/><path d="m146.878906 81.136719c-36.25 0-65.742187 29.492187-65.742187 65.742187s29.492187 65.738282 65.742187 65.738282 65.742188-29.488282 65.742188-65.738282-29.492188-65.742187-65.742188-65.742187zm0 0" fill="#00d7df"/><path d="m146.878906 81.136719v131.480469c36.25 0 65.742188-29.488282 65.742188-65.738282s-29.492188-65.742187-65.742188-65.742187zm0 0" fill="#00aadf"/></svg>